<?xml version="1.0" encoding="utf-8"?>
<!-- Generator: Adobe Illustrator 18.1.1, SVG Export Plug-In . SVG Version: 6.00 Build 0)  -->
<!DOCTYPE svg PUBLIC "-//W3C//DTD SVG 1.1//EN" "http://www.w3.org/Graphics/SVG/1.1/DTD/svg11.dtd">
<svg version="1.1" xmlns="http://www.w3.org/2000/svg" xmlns:xlink="http://www.w3.org/1999/xlink" x="0px" y="0px"
	 viewBox="0 0 105 105" enable-background="new 0 0 105 105" xml:space="preserve">
<g id="Layer_1">
	<path fill="#F7D934" d="M52.5,104.5c-28.8,0-52-23.2-52-52c0-3.7,0.4-7.3,1.1-10.8h24.9c-1.4,3.4-2.2,7-2.2,10.8
		C24.3,68,37,80.7,52.5,80.7C68,80.7,80.7,68,80.7,52.5c0-3.9-0.7-7.5-2.2-10.8h24.9c0.7,3.5,1.1,7.1,1.1,10.8
		C104.5,81.3,81.3,104.5,52.5,104.5z M72.8,33c-5.2-5.3-12.4-8.7-20.3-8.7c-7.9,0-15.2,3.4-20.3,8.7H4.2C11.9,14,30.7,0.5,52.5,0.5
		C74.3,0.5,92.9,14,100.8,33H72.8z M72,52.5C72,63.3,63.2,72,52.5,72C41.7,72,33,63.3,33,52.5C33,41.8,41.7,33,52.5,33
		C63.2,33,72,41.8,72,52.5z"/>
</g>
<g id="Layer_2" display="none">
</g>
</svg>
