<?xml version="1.0" encoding="utf-8"?>
<!-- Generator: Adobe Illustrator 18.1.1, SVG Export Plug-In . SVG Version: 6.00 Build 0)  -->
<!DOCTYPE svg PUBLIC "-//W3C//DTD SVG 1.1//EN" "http://www.w3.org/Graphics/SVG/1.1/DTD/svg11.dtd">
<svg version="1.1" id="Layer_1" xmlns="http://www.w3.org/2000/svg" xmlns:xlink="http://www.w3.org/1999/xlink" x="0px" y="0px"
	 viewBox="0 0 1600 1200" enable-background="new 0 0 1600 1200" xml:space="preserve">
<g id="Layer_3">
</g>
<g id="Layer_1_1_">
	<rect x="54.9" y="179.2" fill="none" stroke="#FFFFFF" stroke-width="5" stroke-miterlimit="10" width="1489.7" height="842.1"/>
	<g>
		<g>
			<path fill="none" stroke="#FFFFFF" stroke-width="5" stroke-miterlimit="10" d="M1357.9,570.3v-73.4h-62.1V391.2H1177V497h-42.8
				h-50.9h-13.5v-8.6c0-39.2,26.1-39.6,64.4-39.2v-80.1c-60.8-6.3-126.5-2.7-157.1,27c-18.5,18-28.4,45-28.4,82.8v18h-54H851h-77.9
				v176.4c0,35.1-18.5,57.6-50,57.6c-28.8,0-43.7-18-43.7-52.2V496.9H558.1V708c0,75.2,38.7,126.5,117,126.5
				c45,0,77-18.5,102.2-52.7h1.8v42.3h115.7V569.8h54v254.3h121.5V569.8h13.5h50.4h43.2v159.8c0,78.3,40.5,100.8,120.2,100.8
				c21.6,0,41-3.2,59.9-7.7v-89.1c-37.8,2.7-60.8,1.8-60.8-30.6V570.3H1357.9L1357.9,570.3z"/>
		</g>
		<g>
			<path fill="none" stroke="#FFFFFF" stroke-width="5" stroke-miterlimit="10" d="M521.2,709.4H376.3V365.5H242.1v459.1h291.2h37.8
				c-18-8.6-33.8-22.1-40.5-38.3C522.5,765.6,521.2,739.5,521.2,709.4z"/>
		</g>
	</g>
</g>
<g id="Layer_2" display="none">
</g>
</svg>
