<?xml version="1.0" encoding="utf-8"?>
<!-- Generator: Adobe Illustrator 18.1.1, SVG Export Plug-In . SVG Version: 6.00 Build 0)  -->
<!DOCTYPE svg PUBLIC "-//W3C//DTD SVG 1.1//EN" "http://www.w3.org/Graphics/SVG/1.1/DTD/svg11.dtd">
<svg version="1.1" xmlns="http://www.w3.org/2000/svg" xmlns:xlink="http://www.w3.org/1999/xlink" x="0px" y="0px"
	 viewBox="0 0 105 105" enable-background="new 0 0 105 105" xml:space="preserve">
<g id="Layer_1">
	<path fill="#F7D934" d="M104.5,52.5c0,28.8-23.2,52-52,52s-52-23.2-52-52s23.2-52,52-52S104.5,23.7,104.5,52.5z M91.5,33.5
		c-2.6,1.1-5.5,1.9-8.5,2.3c3.1-1.8,5.3-4.7,6.4-8.2c-2.9,1.7-5.9,2.9-9.3,3.6c-2.6-2.9-6.5-4.7-10.7-4.7c-8.2,0-14.7,6.6-14.7,14.8
		c0,1.1,0.1,2.3,0.4,3.4c-12.3-0.6-23.2-6.5-30.6-15.5c-1.2,2.3-1.9,4.8-1.9,7.5c0,5.2,2.5,9.6,6.5,12.3c-2.4,0-4.7-0.7-6.6-1.8v0.1
		c0,7.2,5.1,13.1,11.8,14.6c-1.2,0.4-2.5,0.5-3.9,0.5c-1,0-1.9-0.1-2.8-0.2c1.8,5.9,7.3,9.9,13.7,10C36.2,76,30,78.7,23,78.7
		c-1.2,0-2.4-0.1-3.5-0.2C26,82.7,33.8,85,42.1,85c27.2,0,42-22.5,42-42c0-0.6,0-1.3,0-1.9C87,39,89.5,36.4,91.5,33.5z"/>
</g>
<g id="Layer_2" display="none">
</g>
</svg>
